<svg xmlns="http://www.w3.org/2000/svg" width="20" height="20" data-name="MDI / chart-timeline-variant-shimmer" viewBox="0 0 20 20">
  <path fill="#fff" d="M17.5 7.5a1.6 1.6 0 0 0-1.58 2.08l-3 3a1.42 1.42 0 0 0-.84 0l-2.16-2.16a1.6 1.6 0 0 0-1.59-2.09 1.63 1.63 0 0 0-1.58 2.09l-3.83 3.75a1.69 1.69 0 1 0-.42 3.33 1.63 1.63 0 0 0 1.58-2.08l3.75-3.84a1.42 1.42 0 0 0 .84 0l2.16 2.17a1.71 1.71 0 0 0 1.67 2.08 1.6 1.6 0 0 0 1.58-2.08l3-3a1.65 1.65 0 1 0 .42-3.25m-5 .83l.75-1.75L15 5.83l-1.75-.75-.75-1.75-.75 1.75-1.75.75 1.75.75.75 1.75M2.92 10l.41-1.67L5 7.92 3.33 7.5l-.41-1.67L2.5 7.5l-1.67.42 1.67.41z" data-name="Path / chart-timeline-variant-shimmer"/>
</svg>
