<svg xmlns="http://www.w3.org/2000/svg" xmlns:xlink="http://www.w3.org/1999/xlink" width="626" height="219"><defs><linearGradient id="a" x1=".5" x2=".5" y1="1" y2=".061" gradientUnits="objectBoundingBox"><stop offset="0" stop-color="#c5ccfd"/><stop offset="1" stop-color="#fff" stop-opacity="0"/></linearGradient><linearGradient xlink:href="#a" id="c" y1="0" y2=".939"/><clipPath id="b"><rect width="626" height="219" fill="#427ce6" stroke="rgba(0,0,0,0)" stroke-miterlimit="10" rx="16" transform="translate(320 1715)"/></clipPath></defs><g clip-path="url(#b)" transform="translate(-320 -1715)"><circle cx="10" cy="10" r="10" fill="url(#a)" opacity=".322" transform="rotate(-180 372.5 975.5)"/><circle cx="21" cy="21" r="21" fill="url(#c)" opacity=".322" transform="translate(885 1728)"/><circle cx="16.5" cy="16.5" r="16.5" fill="url(#c)" opacity=".322" transform="translate(628 1872)"/><circle cx="57" cy="57" r="57" fill="url(#c)" opacity=".322" transform="translate(301 1884)"/><circle cx="34" cy="34" r="34" fill="url(#c)" opacity=".322" transform="translate(701 1706)"/><g opacity=".9"><path fill="#8c8e92" d="m820.045 1856.462 65.372-37.988-40.177 12.67-65.372 37.99Z"/><path fill="none" d="m820.045 1856.462-40.177 12.67-.185 65.384L860.195 1981l.184-65.061Z"/><path fill="#f2f3f5" d="m833.063 1920.316-25.992-15.006-.127 44.945-27.261-15.739.185-65.384 40.177-12.67 40.335 59.477-.184 65.061-27.259-15.738Z"/><path fill="#8f9397" d="m860.195 1981 65.372-37.99.184-65.061-65.372 37.99Z"/><path fill="none" d="m860.195 1981 65.372-37.99.184-65.061-65.372 37.99Z"/><path fill="#95979c" d="m904.584 1901.11-.068 23.959-20.715 12.038.068-23.959 20.715-12.038Z"/><path fill="#808084" d="m860.379 1915.939 65.372-37.99-40.334-59.475-65.372 37.99Z"/><path fill="#3768c3" d="m858.55 1921.34 73.867-42.927 4.583-4.108-73.867 42.926Z"/><path fill="#1a1c1d" d="m779.868 1869.132 40.177-12.67 3.695 5.449-43.891 13.841Z" opacity=".2"/><path fill="none" d="m806.944 1950.255 65.372-37.99"/><path fill="#727477" d="m806.945 1950.255.127-44.945 9.1 5.254v34.328l-5.011 2.912Z"/><path fill="#dedddb" d="m811.275 1907.737 4.9 2.827 16.888 9.753-.114 40.067-21.788-12.58Z"/><path fill="#5a5b5e" d="m895.348 1919.776 9.2-5.346-.03 10.639-20.715 12.038.03-10.639Z"/><path fill="#95979c" d="m883.869 1913.147 20.715-12.038-.068 23.959-20.647-11.921Z"/><path fill="#aeb1b6" d="m904.516 1925.069-4-2.312-5.164-2.982.027-13.314 9.209-5.352Z"/><path fill="#dedddb" d="m883.808 1934.434.06-21.285 18.4-10.694-.06 21.285Z"/><path fill="#87aff8" d="m815.65 1847.21 73.867-42.927-47.724 15.053-73.863 42.927Z"/><path fill="#427ce6" d="m862.297 1919.737 73.865-42.927-47.483-70.02-73.865 42.927Z"/><path fill="#6895e8" d="m815.65 1847.211-47.724 15.052 4.544 9.378 43.15-13.609 42.931 63.31 4.583-4.108Z"/><path fill="#383838" d="m874.47 1844.42 1.43 14.685 8.6-4.962-.056-15.478Z"/><path fill="#76797d" d="m884.44 1838.665.056 15.478 8.536 4.961 1.309-14.685Z"/><path fill="#a4a6ab" d="m884.459 1834.697-16.839 9.724 16.733 9.724 16.839-9.722Zm-.087 15.478-9.9-5.754 9.97-5.756 9.9 5.754-9.969 5.756Z"/><path fill="#808185" d="m867.62 1844.419.061 14.685 16.733 24.591-.061-29.552Z"/><path fill="#383838" d="m884.353 1854.143.06 29.552 16.839-9.722-.061-29.552Z"/><path fill="#cc8000" d="M828.45 1937.336a1.6 1.6 0 0 1 1.926-1.613 2.356 2.356 0 0 1 1.926 2.244 1.6 1.6 0 0 1-1.925 1.613 2.354 2.354 0 0 1-1.927-2.244Z"/><path fill="#1a1c1d" d="m901.252 1873.973 10.266 15.14-16.808 9.771-10.3-15.185Z" opacity=".2"/></g></g></svg>