<svg xmlns="http://www.w3.org/2000/svg" viewBox="0 0 54 54"><defs><filter id="a" width="54" height="54" x="0" y="0" filterUnits="userSpaceOnUse"><feOffset/><feGaussianBlur result="blur" stdDeviation="3"/><feFlood flood-opacity=".08"/><feComposite in2="blur" operator="in"/><feComposite in="SourceGraphic"/></filter></defs><g filter="url(#a)"><g fill="#fff" stroke="#e6e6e6"><path stroke="none" d="M9 27a18 18 0 1 1 36 0 18 18 0 0 1-36 0z"/><path fill="none" d="M9.5 27a17.5 17.5 0 1 1 35 0 17.5 17.5 0 0 1-35 0z"/></g></g><g><path fill="none" d="M18 18h18v18H18z"/><path fill="#00a651" d="M27.37 21.39a.82.82 0 0 0 0 1.12l3.58 3.73H21.5a.8.8 0 0 0 0 1.6h9.46l-3.6 3.72a.83.83 0 0 0 .02 1.12.75.75 0 0 0 1.08 0l4.86-5.08a.9.9 0 0 0 .16-.25.78.78 0 0 0 .06-.3.81.81 0 0 0-.22-.57l-4.86-5.07a.73.73 0 0 0-1.07-.02z"/></g></svg>